<svg width="40" height="40" viewBox="0 0 40 40" fill="none" xmlns="http://www.w3.org/2000/svg">
<g clip-path="url(#clip0_160_2659)">
<g clip-path="url(#clip1_160_2659)">
<path d="M31.6667 1.875H8.33333C6.49238 1.875 5 3.33007 5 5.125V27.875C5 29.6699 6.49238 31.125 8.33333 31.125H31.6667C33.5076 31.125 35 29.6699 35 27.875V5.125C35 3.33007 33.5076 1.875 31.6667 1.875ZM30 18.9375C30 19.3862 29.6269 19.75 29.1667 19.75H23.3333V25.4375C23.3333 25.8862 22.9602 26.25 22.5 26.25H17.5C17.0398 26.25 16.6667 25.8862 16.6667 25.4375V19.75H10.8333C10.3731 19.75 10 19.3862 10 18.9375V14.0625C10 13.6138 10.3731 13.25 10.8333 13.25H16.6667V7.5625C16.6667 7.11377 17.0398 6.75 17.5 6.75H22.5C22.9602 6.75 23.3333 7.11377 23.3333 7.5625V13.25H29.1667C29.6269 13.25 30 13.6138 30 14.0625V18.9375Z" fill="white"/>
</g>
</g>
<defs>
<clipPath id="clip0_160_2659">
<rect width="40" height="40" rx="8" fill="white"/>
</clipPath>
<clipPath id="clip1_160_2659">
<rect width="24" height="24" fill="white" transform="translate(8 5)"/>
</clipPath>
</defs>
</svg>
