<svg width="47" height="36" viewBox="0 0 47 36" fill="none" xmlns="http://www.w3.org/2000/svg">
<path d="M6.33094 12C6.33094 8.68629 9.16754 6 12.6667 6C16.1658 6 19.0024 8.68629 19.0024 12C19.0024 15.3137 16.1658 18 12.6667 18C10.9863 18 9.37481 17.3679 8.18663 16.2426C6.99845 15.1174 6.33094 13.5913 6.33094 12ZM25.1639 27.825L22.883 23.49C22.0771 21.9613 20.4265 20.9966 18.6223 21H6.71108C4.90682 20.9966 3.2562 21.9613 2.4503 23.49L0.169441 27.825C-0.0776039 28.2893 -0.0531738 28.8416 0.234006 29.2847C0.521186 29.7278 1.03016 29.9984 1.57914 30H23.7542C24.3032 29.9984 24.8121 29.7278 25.0993 29.2847C25.3865 28.8416 25.4109 28.2893 25.1639 27.825Z" fill="white"/>
</svg>
