<svg width="373" height="72" viewBox="0 0 373 72" fill="none" xmlns="http://www.w3.org/2000/svg">
<path d="M53.4219 2.75V71H44.3281L9.96875 18.3594V71H0.921875V2.75H9.96875L44.4688 55.5312V2.75H53.4219ZM99.1719 59.2812V20.2812H107.891V71H99.5938L99.1719 59.2812ZM100.812 48.5938L104.422 48.5C104.422 51.875 104.062 55 103.344 57.875C102.656 60.7188 101.531 63.1875 99.9688 65.2812C98.4062 67.375 96.3594 69.0156 93.8281 70.2031C91.2969 71.3594 88.2188 71.9375 84.5938 71.9375C82.125 71.9375 79.8594 71.5781 77.7969 70.8594C75.7656 70.1406 74.0156 69.0312 72.5469 67.5312C71.0781 66.0312 69.9375 64.0781 69.125 61.6719C68.3438 59.2656 67.9531 56.375 67.9531 53V20.2812H76.625V53.0938C76.625 55.375 76.875 57.2656 77.375 58.7656C77.9062 60.2344 78.6094 61.4062 79.4844 62.2812C80.3906 63.125 81.3906 63.7188 82.4844 64.0625C83.6094 64.4062 84.7656 64.5781 85.9531 64.5781C89.6406 64.5781 92.5625 63.875 94.7188 62.4688C96.875 61.0312 98.4219 59.1094 99.3594 56.7031C100.328 54.2656 100.812 51.5625 100.812 48.5938ZM142.344 20.2812V26.9375H114.922V20.2812H142.344ZM124.203 7.95312H132.875V58.4375C132.875 60.1562 133.141 61.4531 133.672 62.3281C134.203 63.2031 134.891 63.7812 135.734 64.0625C136.578 64.3438 137.484 64.4844 138.453 64.4844C139.172 64.4844 139.922 64.4219 140.703 64.2969C141.516 64.1406 142.125 64.0156 142.531 63.9219L142.578 71C141.891 71.2188 140.984 71.4219 139.859 71.6094C138.766 71.8281 137.438 71.9375 135.875 71.9375C133.75 71.9375 131.797 71.5156 130.016 70.6719C128.234 69.8281 126.812 68.4219 125.75 66.4531C124.719 64.4531 124.203 61.7656 124.203 58.3906V7.95312ZM161.188 28.25V71H152.516V20.2812H160.953L161.188 28.25ZM177.031 20L176.984 28.0625C176.266 27.9062 175.578 27.8125 174.922 27.7812C174.297 27.7188 173.578 27.6875 172.766 27.6875C170.766 27.6875 169 28 167.469 28.625C165.938 29.25 164.641 30.125 163.578 31.25C162.516 32.375 161.672 33.7188 161.047 35.2812C160.453 36.8125 160.062 38.5 159.875 40.3438L157.438 41.75C157.438 38.6875 157.734 35.8125 158.328 33.125C158.953 30.4375 159.906 28.0625 161.188 26C162.469 23.9062 164.094 22.2813 166.062 21.125C168.062 19.9375 170.438 19.3438 173.188 19.3438C173.812 19.3438 174.531 19.4219 175.344 19.5781C176.156 19.7031 176.719 19.8438 177.031 20ZM194.469 20.2812V71H185.75V20.2812H194.469ZM185.094 6.82812C185.094 5.42188 185.516 4.23438 186.359 3.26562C187.234 2.29687 188.516 1.8125 190.203 1.8125C191.859 1.8125 193.125 2.29687 194 3.26562C194.906 4.23438 195.359 5.42188 195.359 6.82812C195.359 8.17188 194.906 9.32812 194 10.2969C193.125 11.2344 191.859 11.7031 190.203 11.7031C188.516 11.7031 187.234 11.2344 186.359 10.2969C185.516 9.32812 185.094 8.17188 185.094 6.82812ZM228.828 71H213.969L214.062 60.0312H228.828C232.516 60.0312 235.625 59.2031 238.156 57.5469C240.688 55.8594 242.594 53.4062 243.875 50.1875C245.188 46.9688 245.844 43.0781 245.844 38.5156V35.1875C245.844 31.6875 245.469 28.6094 244.719 25.9531C244 23.2969 242.922 21.0625 241.484 19.25C240.047 17.4375 238.281 16.0781 236.188 15.1719C234.094 14.2344 231.688 13.7656 228.969 13.7656H213.688V2.75H228.969C233.531 2.75 237.703 3.53125 241.484 5.09375C245.297 6.625 248.594 8.82813 251.375 11.7031C254.156 14.5781 256.297 18.0156 257.797 22.0156C259.328 25.9844 260.094 30.4062 260.094 35.2812V38.5156C260.094 43.3594 259.328 47.7812 257.797 51.7812C256.297 55.7812 254.156 59.2188 251.375 62.0938C248.625 64.9375 245.328 67.1406 241.484 68.7031C237.672 70.2344 233.453 71 228.828 71ZM221.938 2.75V71H207.875V2.75H221.938ZM283.719 20.2812V71H270.172V20.2812H283.719ZM269.328 7.0625C269.328 5.09375 270.016 3.46875 271.391 2.1875C272.766 0.90625 274.609 0.265625 276.922 0.265625C279.203 0.265625 281.031 0.90625 282.406 2.1875C283.812 3.46875 284.516 5.09375 284.516 7.0625C284.516 9.03125 283.812 10.6563 282.406 11.9375C281.031 13.2187 279.203 13.8594 276.922 13.8594C274.609 13.8594 272.766 13.2187 271.391 11.9375C270.016 10.6563 269.328 9.03125 269.328 7.0625ZM318.219 71.9375C314.281 71.9375 310.75 71.3125 307.625 70.0625C304.5 68.7812 301.844 67.0156 299.656 64.7656C297.5 62.5156 295.844 59.9062 294.688 56.9375C293.531 53.9375 292.953 50.75 292.953 47.375V45.5C292.953 41.6562 293.5 38.1406 294.594 34.9531C295.688 31.7656 297.25 29 299.281 26.6562C301.344 24.3125 303.844 22.5156 306.781 21.2656C309.719 19.9844 313.031 19.3438 316.719 19.3438C320.312 19.3438 323.5 19.9375 326.281 21.125C329.062 22.3125 331.391 24 333.266 26.1875C335.172 28.375 336.609 31 337.578 34.0625C338.547 37.0938 339.031 40.4688 339.031 44.1875V49.8125H298.719V40.8125H325.766V39.7812C325.766 37.9062 325.422 36.2344 324.734 34.7656C324.078 33.2656 323.078 32.0781 321.734 31.2031C320.391 30.3281 318.672 29.8906 316.578 29.8906C314.797 29.8906 313.266 30.2812 311.984 31.0625C310.703 31.8438 309.656 32.9375 308.844 34.3438C308.062 35.75 307.469 37.4062 307.062 39.3125C306.688 41.1875 306.5 43.25 306.5 45.5V47.375C306.5 49.4062 306.781 51.2812 307.344 53C307.938 54.7188 308.766 56.2031 309.828 57.4531C310.922 58.7031 312.234 59.6719 313.766 60.3594C315.328 61.0469 317.094 61.3906 319.062 61.3906C321.5 61.3906 323.766 60.9219 325.859 59.9844C327.984 59.0156 329.812 57.5625 331.344 55.625L337.906 62.75C336.844 64.2812 335.391 65.75 333.547 67.1562C331.734 68.5625 329.547 69.7188 326.984 70.625C324.422 71.5 321.5 71.9375 318.219 71.9375ZM371.562 20.2812V29.8438H342.031V20.2812H371.562ZM349.344 7.76562H362.844V55.7188C362.844 57.1875 363.031 58.3125 363.406 59.0938C363.812 59.875 364.406 60.4219 365.188 60.7344C365.969 61.0156 366.953 61.1562 368.141 61.1562C368.984 61.1562 369.734 61.125 370.391 61.0625C371.078 60.9688 371.656 60.875 372.125 60.7812L372.172 70.7188C371.016 71.0938 369.766 71.3906 368.422 71.6094C367.078 71.8281 365.594 71.9375 363.969 71.9375C361 71.9375 358.406 71.4531 356.188 70.4844C354 69.4844 352.312 67.8906 351.125 65.7031C349.938 63.5156 349.344 60.6406 349.344 57.0781V7.76562Z" fill="#0099FF"/>
</svg>
